<?xml version="1.0" encoding="UTF-8" standalone="no"?>
<!-- Created with Inkscape (http://www.inkscape.org/) -->

<svg
   xmlns:dc="http://purl.org/dc/elements/1.1/"
   xmlns:cc="http://creativecommons.org/ns#"
   xmlns:rdf="http://www.w3.org/1999/02/22-rdf-syntax-ns#"
   xmlns:svg="http://www.w3.org/2000/svg"
   xmlns="http://www.w3.org/2000/svg"
   xmlns:sodipodi="http://sodipodi.sourceforge.net/DTD/sodipodi-0.dtd"
   xmlns:inkscape="http://www.inkscape.org/namespaces/inkscape"
   width="112.88889mm"
   height="112.88891mm"
   viewBox="0 0 399.99999 400.00007"
   id="svg2"
   version="1.1"
   inkscape:version="0.91 r13725"
   sodipodi:docname="Instagram.svg">
  <defs
     id="defs4">
    <clipPath
       id="clipPath4160"
       clipPathUnits="userSpaceOnUse">
      <path
         inkscape:connector-curvature="0"
         id="path4162"
         d="m 0,551.986 530.973,0 L 530.973,0 0,0 0,551.986 Z" />
    </clipPath>
  </defs>
  <sodipodi:namedview
     id="base"
     pagecolor="#ffffff"
     bordercolor="#666666"
     borderopacity="1.0"
     inkscape:pageopacity="0"
     inkscape:pageshadow="2"
     inkscape:zoom="0.7"
     inkscape:cx="432.00755"
     inkscape:cy="171.01342"
     inkscape:document-units="px"
     inkscape:current-layer="layer1"
     showgrid="false"
     fit-margin-top="0"
     fit-margin-left="0"
     fit-margin-right="0"
     fit-margin-bottom="0"
     inkscape:window-width="1600"
     inkscape:window-height="838"
     inkscape:window-x="-8"
     inkscape:window-y="-8"
     inkscape:window-maximized="1" />
  <metadata
     id="metadata7">
    <rdf:RDF>
      <cc:Work
         rdf:about="">
        <dc:format>image/svg+xml</dc:format>
        <dc:type
           rdf:resource="http://purl.org/dc/dcmitype/StillImage" />
        <dc:title></dc:title>
      </cc:Work>
    </rdf:RDF>
  </metadata>
  <g
     inkscape:label="Layer 1"
     inkscape:groupmode="layer"
     id="layer1"
     transform="translate(-141.79824,-360.32726)"
     style="display:inline">
    <path
       style="opacity:0.98000004;fill:#ffffff;fill-opacity:1;stroke:none;stroke-width:0.76800001;stroke-linecap:butt;stroke-linejoin:round;stroke-miterlimit:4;stroke-dasharray:none;stroke-dashoffset:0;stroke-opacity:1"
       d="m 341.06275,360.32861 a 200.00031,200.00031 0 0 0 -199.26391,200.48952 200.00031,200.00031 0 0 0 200.24439,199.50904 200.00031,200.00031 0 0 0 199.755,-200.00012 l -0.002,-0.98049 A 200.00031,200.00031 0 0 0 341.06304,360.32861 Z m 0.46574,63.73173 c 52.06345,0.002 67.23226,0.81157 80.60287,4.29555 26.51211,6.90828 45.17337,25.731 51.88472,52.3344 3.27842,12.99545 4.09355,28.8653 4.09355,79.6824 0,50.8171 -0.81513,66.68781 -4.09355,79.68325 -6.71135,26.6034 -25.37261,45.42613 -51.88472,52.33439 -8.42376,2.195 -16.3909,3.13215 -31.91658,3.75291 -15.58897,0.62327 -82.97973,0.59342 -98.99548,-0.044 -12.89011,-0.51301 -22.01344,-1.65157 -29.90067,-3.73093 -26.4466,-6.97233 -45.04195,-25.77438 -51.7368,-52.31242 -3.28381,-13.01681 -4.09787,-28.8086 -4.09523,-79.41276 0.002,-51.11237 0.81326,-66.94334 4.09523,-79.95288 6.71134,-26.60341 25.37262,-45.42613 51.88472,-52.33441 13.37656,-3.48553 28.51518,-4.29822 80.06194,-4.29555 z m 0.27046,24.61278 c -28.13829,0 -56.27689,0.53592 -64.17548,1.60766 -9.90159,1.34353 -18.90055,4.38373 -24.91369,8.41699 -3.70289,2.48368 -9.62782,8.35701 -12.17918,12.07267 -4.41554,6.43058 -7.42219,15.09353 -8.82439,25.42761 -2.14349,15.79718 -2.14349,112.55295 0,128.35013 1.4022,10.33408 4.40885,18.99704 8.82439,25.42759 2.55136,3.71569 8.47629,9.589 12.17918,12.07268 6.1461,4.12244 15.08004,7.09687 25.46563,8.47784 11.12289,1.47904 56.79256,2.08883 96.62204,1.2907 26.42858,-0.52959 33.63655,-1.13631 41.88122,-3.52554 9.06253,-2.62621 14.35132,-5.60802 20.51248,-11.56637 8.30761,-8.03416 12.74168,-17.74035 14.70056,-32.1769 2.14349,-15.79718 2.14349,-112.55295 0,-128.35013 -1.40221,-10.33408 -4.40887,-18.99703 -8.82439,-25.42761 -2.55138,-3.71566 -8.47631,-9.58899 -12.17919,-12.07267 -6.01315,-4.03326 -15.0121,-7.07346 -24.91369,-8.41699 -7.89859,-1.07174 -36.03719,-1.60766 -64.17549,-1.60766 z m 72.3913,22.68225 c 2.42865,-0.0379 4.89816,0.39045 6.91244,1.29238 3.43623,1.53864 6.81697,4.93548 8.43305,8.47445 1.80286,3.94808 1.70593,9.81788 -0.22315,13.52399 -1.67984,3.22726 -4.69415,6.21529 -7.8794,7.80924 -2.53676,1.26942 -8.03394,1.87956 -10.66196,1.18335 -4.73707,-1.25492 -8.61667,-4.41529 -10.95273,-8.92244 -1.97607,-3.8126 -2.06403,-10.21557 -0.19018,-13.86461 1.70381,-3.31793 4.65558,-6.30538 7.89714,-7.99266 1.84854,-0.96219 4.23614,-1.46582 6.66479,-1.5037 z m -72.3913,19.26066 c 4.53771,0 9.07576,0.26006 12.05833,0.78018 29.0067,5.05833 51.86067,27.9123 56.91901,56.91902 1.04023,5.96511 1.04023,18.15066 0,24.11577 -1.04247,5.97799 -3.11566,12.49296 -5.70965,17.94632 -9.76708,20.53339 -28.87847,35.07852 -51.20936,38.9727 -5.75515,1.00361 -18.91671,0.98583 -24.54265,-0.033 -28.74836,-5.20595 -51.46984,-28.08595 -56.49216,-56.88608 -1.04023,-5.96509 -1.04023,-18.15065 0,-24.11577 5.05834,-29.00672 27.91231,-51.86067 56.91902,-56.91903 2.98255,-0.52011 7.51977,-0.78017 12.05746,-0.78017 z m 0,24.6035 c -3.95522,0 -7.91033,0.33703 -10.45994,1.01176 -17.13504,4.53458 -29.14687,16.54641 -33.68146,33.68145 -1.34945,5.09925 -1.34945,15.82151 0,20.92075 4.25621,16.08312 15.41764,27.97763 30.88791,32.91649 6.71069,2.14239 17.17363,2.4602 23.8022,0.72355 16.98932,-4.45114 29.06951,-16.54812 33.59269,-33.64004 1.34947,-5.09924 1.34947,-15.8215 0,-20.92075 -1.51032,-5.70713 -3.40603,-9.96773 -6.53967,-14.69464 -6.26349,-9.44807 -15.49289,-15.90408 -27.14177,-18.98681 -2.54963,-0.67473 -6.50472,-1.01176 -10.45996,-1.01176 z"
       id="path4149"
       inkscape:connector-curvature="0" />
  </g>
  <style
     id="style4152"
     type="text/css">
	.st0{fill:#FFFFFF;}
</style>
</svg>
